<svg data-v-423bf9ae="" xmlns="http://www.w3.org/2000/svg" viewBox="0 0 798 90" class="iconLeft"><!----><defs data-v-423bf9ae=""><linearGradient data-v-423bf9ae="" gradientTransform="rotate(25)" id="bb5c9bc5-5604-4812-aedb-e3f0e4b59dcd" x1="0%" y1="0%" x2="100%" y2="0%"><stop data-v-423bf9ae="" offset="0%" style="stop-color: rgb(75, 39, 155); stop-opacity: 1;"></stop><stop data-v-423bf9ae="" offset="100%" style="stop-color: rgb(223, 153, 216); stop-opacity: 1;"></stop></linearGradient></defs><!----><g data-v-423bf9ae="" id="a1702835-d944-4636-b49a-ce0fb984a534" fill="#ffffff" transform="matrix(5.8365760270947415,0,0,5.8365760270947415,103.43703224022778,-6.245136158813153)"><path d="M6.99 13.75L1.62 13.75L1.62 12.94L5.45 7.66L1.90 7.66L1.90 6.59L7 6.59L7 7.38L3.16 12.68L6.99 12.68L6.99 13.75ZM16.07 9.86L16.07 9.86L16.07 9.86Q16.07 10.32 16.03 10.64L16.03 10.64L11.03 10.64L11.03 10.64Q11.17 11.68 11.71 12.26L11.71 12.26L11.71 12.26Q12.25 12.84 13.12 12.84L13.12 12.84L13.12 12.84Q14.03 12.84 14.78 12.22L14.78 12.22L15.46 13.01L15.46 13.01Q14.45 13.92 13.08 13.92L13.08 13.92L13.08 13.92Q11.58 13.92 10.69 12.85L10.69 12.85L10.69 12.85Q9.80 11.79 9.80 10.16L9.80 10.16L9.80 10.16Q9.80 8.41 10.69 7.42L10.69 7.42L10.69 7.42Q11.58 6.43 13.08 6.43L13.08 6.43L13.08 6.43Q14.39 6.43 15.23 7.29L15.23 7.29L15.23 7.29Q16.07 8.16 16.07 9.86ZM11.00 9.60L11.00 9.60L14.88 9.60L14.88 9.60Q14.85 8.47 14.32 7.98L14.32 7.98L14.32 7.98Q13.79 7.49 13.08 7.49L13.08 7.49L13.08 7.49Q12.12 7.49 11.60 8.05L11.60 8.05L11.60 8.05Q11.07 8.61 11.00 9.60ZM21.83 6.43L21.83 6.43L21.83 6.43Q23.13 6.43 23.80 7.20L23.80 7.20L23.80 7.20Q24.47 7.97 24.47 9.65L24.47 9.65L24.47 13.75L23.28 13.75L23.28 9.49L23.28 9.49Q23.28 8.47 22.83 7.99L22.83 7.99L22.83 7.99Q22.37 7.52 21.62 7.52L21.62 7.52L21.62 7.52Q19.85 7.52 19.85 9.46L19.85 9.46L19.85 13.75L18.66 13.75L18.66 6.59L19.78 6.59L19.78 7.45L19.78 7.45Q20.43 6.43 21.83 6.43ZM30.35 5.28L30.35 5.28L30.35 5.28Q30.04 5.28 29.83 5.06L29.83 5.06L29.83 5.06Q29.61 4.84 29.61 4.54L29.61 4.54L29.61 4.54Q29.61 4.21 29.83 3.99L29.83 3.99L29.83 3.99Q30.04 3.77 30.35 3.77L30.35 3.77L30.35 3.77Q30.67 3.77 30.89 3.99L30.89 3.99L30.89 3.99Q31.11 4.21 31.11 4.54L31.11 4.54L31.11 4.54Q31.11 4.86 30.89 5.07L30.89 5.07L30.89 5.07Q30.67 5.28 30.35 5.28ZM30.95 6.59L30.95 12.68L32.93 12.68L32.93 13.75L27.79 13.75L27.79 12.68L29.76 12.68L29.76 7.66L27.79 7.66L27.79 6.59L30.95 6.59ZM39.45 13.92L39.45 13.92L39.45 13.92Q37.63 13.92 37.63 12.12L37.63 12.12L37.63 7.66L35.99 7.66L35.99 6.59L37.63 6.59L37.63 4.23L38.82 3.64L38.82 6.59L41.23 6.59L41.23 7.66L38.82 7.66L38.82 11.75L38.82 11.75Q38.82 12.28 39.04 12.55L39.04 12.55L39.04 12.55Q39.26 12.82 39.86 12.82L39.86 12.82L39.86 12.82Q40.52 12.82 41.17 12.43L41.17 12.43L41.03 13.59L41.03 13.59Q40.42 13.92 39.45 13.92ZM45.72 13.75L44.53 13.75L44.53 4.20L45.72 3.64L45.72 7.36L45.72 7.36Q46.40 6.43 47.70 6.43L47.70 6.43L47.70 6.43Q49.00 6.43 49.67 7.20L49.67 7.20L49.67 7.20Q50.34 7.97 50.34 9.65L50.34 9.65L50.34 13.75L49.15 13.75L49.15 9.49L49.15 9.49Q49.15 8.47 48.70 7.99L48.70 7.99L48.70 7.99Q48.24 7.52 47.49 7.52L47.49 7.52L47.49 7.52Q45.72 7.52 45.72 9.46L45.72 9.46L45.72 13.75ZM59.35 10.16L52.77 10.16L52.77 9.00L59.35 9.00L59.35 10.16ZM67.82 9.86L67.82 9.86L67.82 9.86Q67.82 10.32 67.77 10.64L67.77 10.64L62.78 10.64L62.78 10.64Q62.92 11.68 63.46 12.26L63.46 12.26L63.46 12.26Q63.99 12.84 64.86 12.84L64.86 12.84L64.86 12.84Q65.77 12.84 66.53 12.22L66.53 12.22L67.20 13.01L67.20 13.01Q66.19 13.92 64.82 13.92L64.82 13.92L64.82 13.92Q63.32 13.92 62.43 12.85L62.43 12.85L62.43 12.85Q61.54 11.79 61.54 10.16L61.54 10.16L61.54 10.16Q61.54 8.41 62.43 7.42L62.43 7.42L62.43 7.42Q63.32 6.43 64.82 6.43L64.82 6.43L64.82 6.43Q66.14 6.43 66.98 7.29L66.98 7.29L66.98 7.29Q67.82 8.16 67.82 9.86ZM62.75 9.60L62.75 9.60L66.63 9.60L66.63 9.60Q66.60 8.47 66.07 7.98L66.07 7.98L66.07 7.98Q65.53 7.49 64.82 7.49L64.82 7.49L64.82 7.49Q63.87 7.49 63.34 8.05L63.34 8.05L63.34 8.05Q62.82 8.61 62.75 9.60ZM72.83 13.92L72.83 13.92L72.83 13.92Q71.67 13.92 70.97 13.29L70.97 13.29L70.97 13.29Q70.27 12.67 70.27 11.51L70.27 11.51L70.27 11.51Q70.27 10.35 71.06 9.74L71.06 9.74L71.06 9.74Q71.85 9.14 73.01 9.14L73.01 9.14L73.01 9.14Q74.07 9.14 74.94 9.60L74.94 9.60L74.94 9.06L74.94 9.06Q74.94 7.46 73.43 7.46L73.43 7.46L73.43 7.46Q72.32 7.46 71.16 8.22L71.16 8.22L70.81 7.22L70.81 7.22Q72.10 6.43 73.54 6.43L73.54 6.43L73.54 6.43Q74.00 6.43 74.41 6.53L74.41 6.53L74.41 6.53Q74.82 6.64 75.22 6.90L75.22 6.90L75.22 6.90Q75.61 7.15 75.84 7.69L75.84 7.69L75.84 7.69Q76.08 8.22 76.08 8.97L76.08 8.97L76.08 13.75L74.94 13.75L74.94 13.09L74.94 13.09Q74.05 13.92 72.83 13.92ZM72.98 12.88L72.98 12.88L72.98 12.88Q74.10 12.88 74.94 11.90L74.94 11.90L74.94 10.67L74.94 10.67Q74.12 10.16 73.15 10.16L73.15 10.16L73.15 10.16Q72.39 10.16 71.89 10.51L71.89 10.51L71.89 10.51Q71.39 10.85 71.39 11.51L71.39 11.51L71.39 11.51Q71.39 12.12 71.81 12.50L71.81 12.50L71.81 12.50Q72.23 12.88 72.98 12.88ZM83.69 6.43L83.69 6.43L83.69 6.43Q84.69 6.43 85.26 6.76L85.26 6.76L85.26 9.24L84.07 9.24L84.07 7.62L84.07 7.62Q83.93 7.60 83.64 7.60L83.64 7.60L83.64 7.60Q82.54 7.60 81.80 8.13L81.80 8.13L81.80 8.13Q81.05 8.67 81.05 9.63L81.05 9.63L81.05 12.68L83.13 12.68L83.13 13.75L78.33 13.75L78.33 12.68L79.83 12.68L79.83 7.66L78.33 7.66L78.33 6.59L80.96 6.59L80.96 7.84L80.96 7.84Q81.33 7.20 82.10 6.81L82.10 6.81L82.10 6.81Q82.88 6.43 83.69 6.43ZM90.82 6.43L90.82 6.43L90.82 6.43Q92.12 6.43 92.79 7.20L92.79 7.20L92.79 7.20Q93.46 7.97 93.46 9.65L93.46 9.65L93.46 13.75L92.27 13.75L92.27 9.49L92.27 9.49Q92.27 8.47 91.82 7.99L91.82 7.99L91.82 7.99Q91.36 7.52 90.61 7.52L90.61 7.52L90.61 7.52Q88.84 7.52 88.84 9.46L88.84 9.46L88.84 13.75L87.65 13.75L87.65 6.59L88.77 6.59L88.77 7.45L88.77 7.45Q89.42 6.43 90.82 6.43ZM102.31 9.86L102.31 9.86L102.31 9.86Q102.31 10.32 102.27 10.64L102.27 10.64L97.27 10.64L97.27 10.64Q97.41 11.68 97.95 12.26L97.95 12.26L97.95 12.26Q98.49 12.84 99.36 12.84L99.36 12.84L99.36 12.84Q100.27 12.84 101.02 12.22L101.02 12.22L101.70 13.01L101.70 13.01Q100.69 13.92 99.32 13.92L99.32 13.92L99.32 13.92Q97.82 13.92 96.93 12.85L96.93 12.85L96.93 12.85Q96.04 11.79 96.04 10.16L96.04 10.16L96.04 10.16Q96.04 8.41 96.93 7.42L96.93 7.42L96.93 7.42Q97.82 6.43 99.32 6.43L99.32 6.43L99.32 6.43Q100.63 6.43 101.47 7.29L101.47 7.29L101.47 7.29Q102.31 8.16 102.31 9.86ZM97.24 9.60L97.24 9.60L101.12 9.60L101.12 9.60Q101.09 8.47 100.56 7.98L100.56 7.98L100.56 7.98Q100.03 7.49 99.32 7.49L99.32 7.49L99.32 7.49Q98.36 7.49 97.84 8.05L97.84 8.05L97.84 8.05Q97.31 8.61 97.24 9.60ZM109.56 6.43L109.56 6.43L109.56 6.43Q110.56 6.43 111.13 6.76L111.13 6.76L111.13 9.24L109.94 9.24L109.94 7.62L109.94 7.62Q109.80 7.60 109.51 7.60L109.51 7.60L109.51 7.60Q108.42 7.60 107.67 8.13L107.67 8.13L107.67 8.13Q106.92 8.67 106.92 9.63L106.92 9.63L106.92 12.68L109.00 12.68L109.00 13.75L104.20 13.75L104.20 12.68L105.70 12.68L105.70 7.66L104.20 7.66L104.20 6.59L106.83 6.59L106.83 7.84L106.83 7.84Q107.20 7.20 107.97 6.81L107.97 6.81L107.97 6.81Q108.75 6.43 109.56 6.43ZM116.40 13.92L116.40 13.92L116.40 13.92Q115.61 13.92 114.90 13.57L114.90 13.57L114.90 13.57Q114.20 13.23 113.72 12.66L113.72 12.66L114.53 11.94L114.53 11.94Q115.39 12.88 116.48 12.88L116.48 12.88L116.48 12.88Q117.08 12.88 117.47 12.64L117.47 12.64L117.47 12.64Q117.87 12.39 117.87 11.94L117.87 11.94L117.87 11.94Q117.87 11.68 117.73 11.47L117.73 11.47L117.73 11.47Q117.60 11.26 117.28 11.07L117.28 11.07L117.28 11.07Q116.97 10.89 116.75 10.79L116.75 10.79L116.75 10.79Q116.52 10.68 116.05 10.50L116.05 10.50L116.05 10.50Q115.49 10.28 115.16 10.11L115.16 10.11L115.16 10.11Q114.83 9.94 114.47 9.67L114.47 9.67L114.47 9.67Q114.11 9.41 113.95 9.07L113.95 9.07L113.95 9.07Q113.79 8.74 113.79 8.29L113.79 8.29L113.79 8.29Q113.79 7.45 114.50 6.94L114.50 6.94L114.50 6.94Q115.21 6.43 116.30 6.43L116.30 6.43L116.30 6.43Q117.84 6.43 118.80 7.53L118.80 7.53L118.01 8.19L118.01 8.19Q117.22 7.46 116.27 7.46L116.27 7.46L116.27 7.46Q115.64 7.46 115.27 7.69L115.27 7.69L115.27 7.69Q114.90 7.91 114.90 8.29L114.90 8.29L114.90 8.29Q114.90 8.69 115.28 8.95L115.28 8.95L115.28 8.95Q115.67 9.20 116.47 9.51L116.47 9.51L116.47 9.51Q116.54 9.53 116.58 9.55L116.58 9.55L116.58 9.55Q117.07 9.74 117.28 9.84L117.28 9.84L117.28 9.84Q117.50 9.93 117.90 10.15L117.90 10.15L117.90 10.15Q118.30 10.37 118.48 10.58L118.48 10.58L118.48 10.58Q118.66 10.79 118.82 11.14L118.82 11.14L118.82 11.14Q118.97 11.48 118.97 11.90L118.97 11.90L118.97 11.90Q118.97 12.84 118.28 13.38L118.28 13.38L118.28 13.38Q117.59 13.92 116.40 13.92Z"></path></g><!----><g data-v-423bf9ae="" id="f2b38950-82a6-445d-8e77-5b6f5e79d054" transform="matrix(1.1653050755387464,0,0,1.1653050755387464,-11.123169269198385,-12.881171305606983)" stroke="none" fill="#ffffff"><path d="M51.366 46.812c-2.962-.76-3.697-1.125-3.697-2.252v-.049c0-.834.759-1.492 2.204-1.493 1.177.001 2.351.416 3.6 1.15.295.172.589.27.958.27.977 0 1.762-.76 1.761-1.738a1.718 1.718 0 0 0-.833-1.493c-.998-.636-2.123-1.062-3.348-1.301v-2.044h-3.82v2.011c-2.563.567-4.269 2.414-4.269 4.981v.048c0 3.403 2.23 4.358 5.681 5.241 2.865.734 3.454 1.224 3.454 2.178l-.001.051c0 1.005-.932 1.618-2.473 1.618-1.666-.001-3.086-.59-4.384-1.544a1.806 1.806 0 0 0-1.077-.344c-.979 0-1.762.76-1.763 1.738 0 .589.293 1.127.71 1.42a10.966 10.966 0 0 0 4.121 1.808l-.001 2.416 3.82.001v-2.284c2.879-.458 4.792-2.274 4.792-5.195v-.05c.002-2.987-1.958-4.235-5.435-5.144z"></path><g><path d="M36.963 60.23h-1.407l-1 4.821h9.639a17.397 17.397 0 0 1-6.605-4.128c-.223-.222-.419-.461-.627-.693zM64.635 60.23H63.02c-.208.231-.403.471-.626.693a17.405 17.405 0 0 1-6.605 4.128h9.847l-1.001-4.821z"></path><path d="M36.963 60.23h-1.407l-1 4.821h9.639a17.397 17.397 0 0 1-6.605-4.128c-.223-.222-.419-.461-.627-.693zM64.635 60.23H63.02c-.208.231-.403.471-.626.693a17.405 17.405 0 0 1-6.605 4.128h9.847l-1.001-4.821zM58.857 57.389c4.89-4.89 4.89-12.845.001-17.733-4.889-4.89-12.844-4.89-17.733 0-4.889 4.889-4.889 12.844 0 17.733 4.889 4.888 12.844 4.888 17.732 0z"></path></g><g><path d="M58.857 57.389c4.89-4.89 4.89-12.845.001-17.733-4.889-4.89-12.844-4.89-17.733 0-4.889 4.889-4.889 12.844 0 17.733 4.889 4.888 12.844 4.888 17.732 0zM55.788 65.052h9.847l-1-4.821H63.02c-.208.231-.403.471-.626.693a17.409 17.409 0 0 1-6.606 4.128zM37.589 60.924c-.223-.223-.418-.462-.626-.693h-1.407l-1 4.821h9.639a17.409 17.409 0 0 1-6.606-4.128z"></path></g><path d="M21.351 54.639c-.628.326-1.236.663-1.819 1.011 2.351 10.101 9.633 18.327 19.161 21.998l1.569-1.568c-9.509-3.326-16.791-11.434-18.911-21.441zM58.857 57.389c4.89-4.89 4.89-12.845.001-17.733-4.889-4.89-12.844-4.89-17.733 0-4.889 4.889-4.889 12.844 0 17.733 4.889 4.888 12.844 4.888 17.732 0zM55.788 65.052h9.847l-1-4.821H63.02c-.208.231-.403.471-.626.693a17.409 17.409 0 0 1-6.606 4.128zM37.589 60.924c-.223-.223-.418-.462-.626-.693h-1.407l-1 4.821h9.639a17.409 17.409 0 0 1-6.606-4.128z"></path><path d="M81.529 56.318c.604-2.478.932-5.062.932-7.722 0-13.651-8.431-25.365-20.358-30.223l-3.907 3.905c11.158 3.549 19.266 14 19.266 26.317 0 1.782-.176 3.522-.5 5.211-2.837-1.312-6.065-2.407-9.567-3.265.592-5.139-1.065-10.49-4.999-14.424-6.839-6.838-17.967-6.838-24.805.001-3.933 3.933-5.591 9.281-5 14.419-3.622.888-6.941 2.038-9.848 3.41a27.606 27.606 0 0 1-.525-5.353c0-15.23 12.391-27.621 27.622-27.621h.002l-.001 5.406 7.511-7.5-7.509-7.499-.001 4.593h-.002c-17.988 0-32.622 14.634-32.622 32.621 0 2.726.341 5.371.974 7.903-5.045 3.357-8.047 7.535-8.047 12.068 0 11.071 17.843 20.048 39.858 20.048 22.012 0 39.857-8.977 39.857-20.048-.003-4.613-3.117-8.859-8.331-12.247zM64.635 60.23l1 4.821h-9.847a17.397 17.397 0 0 0 6.605-4.128c.223-.223.418-.462.626-.693h1.616zm-23.51-20.575c4.89-4.89 12.845-4.89 17.733 0 4.889 4.889 4.889 12.844-.001 17.733-4.889 4.889-12.844 4.889-17.732 0-4.889-4.889-4.889-12.844 0-17.733zM35.556 60.23h1.407c.208.231.404.471.626.693a17.397 17.397 0 0 0 6.605 4.128h-9.639l1.001-4.821zm3.137 17.417c-9.528-3.671-16.81-11.897-19.161-21.998a35.137 35.137 0 0 1 1.819-1.011c2.121 10.007 9.402 18.115 18.912 21.44l-1.57 1.569zm11.145 2.071h-.019l.001 6.062-6.837-6.827-.015-.004-.668-.667 1.251-1.25a.03.03 0 0 1 .009.002l6.257-6.253.001 6.937h.019c14.041 0 25.792-9.987 28.523-23.23.631.321 1.235.655 1.822.997-3.143 13.855-15.55 24.233-30.344 24.233z"></path></g><!----></svg>